<?xml version="1.0" encoding="utf-8"?>
<!-- Generator: Adobe Illustrator 21.0.2, SVG Export Plug-In . SVG Version: 6.00 Build 0)  -->
<svg version="1.1" id="Capa_1" xmlns="http://www.w3.org/2000/svg" xmlns:xlink="http://www.w3.org/1999/xlink" x="0px" y="0px"
	 viewBox="0 0 180 35" style="enable-background:new 0 0 180 35;" xml:space="preserve">
<g>
	<path style="fill:#4F4E4F;" d="M3.2,21.7c0,0.3-0.1,0.6-0.4,0.8c-0.2,0.2-0.5,0.3-0.8,0.3s-0.5-0.1-0.7-0.4C1.1,22.2,1,21.9,1,21.6
		V1.7c0-0.3,0.1-0.5,0.3-0.8c0.2-0.2,0.5-0.3,0.8-0.3c0.3,0,0.6,0.1,0.8,0.4c0.2,0.2,0.3,0.5,0.3,0.8V21.7z"/>
	<path style="fill:#4F4E4F;" d="M8.2,3.2c0,0.3-0.1,0.6-0.3,0.8C7.6,4.3,7.4,4.4,7.1,4.4c-0.3,0-0.6-0.1-0.8-0.3
		C6.1,3.9,6,3.6,6,3.3C6,3,6.1,2.7,6.3,2.5C6.5,2.3,6.8,2.1,7,2.1c0.3,0,0.6,0.1,0.8,0.3C8.1,2.7,8.2,2.9,8.2,3.2 M8.2,21.7
		c0,0.3-0.1,0.6-0.4,0.8c-0.2,0.2-0.5,0.3-0.8,0.3c-0.3,0-0.5-0.1-0.7-0.4C6.1,22.2,6,21.9,6,21.6V7.9c0-0.3,0.1-0.6,0.3-0.8
		C6.5,6.9,6.8,6.8,7,6.8c0.3,0,0.6,0.1,0.8,0.4C8,7.4,8.2,7.7,8.2,8V21.7z M8.2,21.7c0,0.3-0.1,0.6-0.4,0.8
		c-0.2,0.2-0.5,0.3-0.8,0.3c-0.3,0-0.5-0.1-0.7-0.4C6.1,22.2,6,21.9,6,21.6L8.2,21.7z"/>
	<path style="fill:#4F4E4F;" d="M26,14.7c0,2.2-0.7,4.1-2.2,5.7c-1.5,1.6-3.3,2.3-5.3,2.3c-2.1,0-3.9-0.8-5.4-2.3
		c-1.5-1.6-2.2-3.5-2.2-5.7V1.7c0-0.3,0.1-0.6,0.3-0.8c0.2-0.2,0.5-0.3,0.8-0.3c0.3,0,0.6,0.1,0.8,0.4c0.2,0.2,0.3,0.5,0.3,0.8v7.5
		c1.5-1.7,3.3-2.6,5.4-2.6c2.1,0,3.9,0.8,5.3,2.3C25.3,10.6,26,12.5,26,14.7 M23.8,14.8c0-1.6-0.5-2.9-1.6-4c-1-1.1-2.3-1.7-3.8-1.7
		c-1.5,0-2.8,0.6-3.8,1.7c-1,1.1-1.6,2.4-1.6,4c0,1.6,0.5,2.9,1.6,4c1,1.1,2.3,1.7,3.8,1.7c1.5,0,2.7-0.6,3.8-1.7
		C23.3,17.7,23.8,16.3,23.8,14.8"/>
	<path style="fill:#4F4E4F;" d="M35.4,6.8h1.9c0.3,0,0.6,0.1,0.8,0.3c0.2,0.2,0.3,0.5,0.3,0.8c0,0.3-0.1,0.6-0.3,0.8
		c-0.2,0.2-0.5,0.3-0.8,0.3h-1h-1c-1.5,0-2.8,0.6-3.8,1.7c-1,1.1-1.6,2.5-1.6,4v6.8c0,0.3-0.1,0.6-0.3,0.8c-0.2,0.2-0.5,0.3-0.8,0.3
		c-0.7,0-1.1-0.4-1.1-1.1v-6.8c0-2.2,0.7-4.1,2.2-5.6C31.5,7.6,33.3,6.8,35.4,6.8h1.9H35.4z"/>
	<path style="fill:#4F4E4F;" d="M53.5,16.1H40.7c0.3,1.3,0.9,2.3,1.9,3.1c1,0.8,2.1,1.2,3.4,1.2h0.9h0.9c0.7,0,1.1,0.4,1.1,1.2
		c0,0.7-0.4,1.1-1.1,1.2c-0.4,0-1,0-2,0c-2.1,0-3.9-0.8-5.4-2.3c-1.5-1.6-2.2-3.5-2.2-5.7c0-2.2,0.7-4.1,2.2-5.6
		c1.5-1.6,3.3-2.3,5.4-2.3c1.5,0,2.9,0.4,4.2,1.3c1.3,0.9,2.2,2.1,2.8,3.6c0.3,0.8,0.5,1.5,0.5,1.9V16.1z M50.9,13.7
		c-0.3-1.3-0.8-2.4-1.7-3.3c-0.9-0.9-2-1.3-3.3-1.3c-1.3,0-2.4,0.4-3.4,1.3c-1,0.9-1.6,2-1.9,3.3H50.9z"/>
	<path style="fill:#4F4E4F;" d="M62.8,6.8h1.9c0.3,0,0.6,0.1,0.8,0.3c0.2,0.2,0.3,0.5,0.3,0.8c0,0.3-0.1,0.6-0.3,0.8
		c-0.2,0.2-0.5,0.3-0.8,0.3h-1h-1c-1.5,0-2.8,0.6-3.8,1.7c-1,1.1-1.6,2.5-1.6,4v6.8c0,0.3-0.1,0.6-0.3,0.8c-0.2,0.2-0.5,0.3-0.8,0.3
		c-0.7,0-1.1-0.4-1.1-1.1v-6.8c0-2.2,0.7-4.1,2.2-5.6C58.9,7.6,60.7,6.8,62.8,6.8h1.9H62.8z"/>
	<path style="fill:#4F4E4F;" d="M70.3,3.2c0,0.3-0.1,0.6-0.3,0.8c-0.2,0.2-0.5,0.4-0.8,0.4c-0.3,0-0.6-0.1-0.8-0.3
		c-0.2-0.2-0.3-0.5-0.3-0.8c0-0.3,0.1-0.6,0.3-0.8c0.2-0.2,0.5-0.4,0.8-0.4c0.3,0,0.6,0.1,0.8,0.3C70.2,2.7,70.3,2.9,70.3,3.2
		 M70.3,21.7c0,0.3-0.1,0.6-0.3,0.8c-0.2,0.2-0.5,0.3-0.8,0.3c-0.3,0-0.5-0.1-0.7-0.4c-0.2-0.2-0.3-0.5-0.3-0.8V7.9
		c0-0.3,0.1-0.6,0.3-0.8c0.2-0.2,0.5-0.3,0.8-0.3c0.3,0,0.5,0.1,0.8,0.4c0.2,0.2,0.3,0.5,0.3,0.8V21.7z M70.3,21.7
		c0,0.3-0.1,0.6-0.3,0.8c-0.2,0.2-0.5,0.3-0.8,0.3c-0.3,0-0.5-0.1-0.7-0.4c-0.2-0.2-0.3-0.5-0.3-0.8L70.3,21.7z"/>
	<path style="fill:#4F4E4F;" d="M87.9,21.7c0,0.3-0.1,0.6-0.3,0.8c-0.2,0.2-0.5,0.3-0.8,0.3c-0.6,0-0.9-0.3-1-0.9c0-0.1,0-0.6,0-1.6
		c-1.5,1.7-3.3,2.6-5.4,2.6c-2.1,0-3.9-0.8-5.4-2.3c-1.5-1.6-2.2-3.5-2.2-5.7c0-2.2,0.7-4.1,2.2-5.6c1.5-1.6,3.3-2.3,5.4-2.3
		c2.1,0,3.8,0.8,5.3,2.3c1.5,1.6,2.2,3.4,2.2,5.6V21.7z M85.7,14.8c0-1.6-0.5-2.9-1.6-4c-1-1.1-2.3-1.7-3.8-1.7
		c-1.5,0-2.8,0.6-3.8,1.7c-1,1.1-1.6,2.5-1.6,4c0,1.6,0.5,2.9,1.6,4c1,1.1,2.3,1.7,3.8,1.7c1.5,0,2.7-0.6,3.8-1.7
		C85.2,17.7,85.7,16.3,85.7,14.8"/>
	<path style="fill:#4F4E4F;" d="M105,14.7c0,2.2-0.7,4.1-2.2,5.7c-1.5,1.6-3.3,2.3-5.3,2.3c-2.1,0-3.9-0.8-5.4-2.3
		c-1.5-1.6-2.2-3.5-2.2-5.7s0.7-4.1,2.2-5.7c1.5-1.6,3.3-2.3,5.4-2.3c2,0,3.8,0.9,5.3,2.6l0-7.5c0-0.3,0.1-0.6,0.3-0.8
		c0.2-0.2,0.5-0.4,0.8-0.4c0.3,0,0.6,0.1,0.8,0.3c0.2,0.2,0.3,0.5,0.3,0.8V14.7z M102.8,14.8c0-1.6-0.5-2.9-1.6-4
		c-1-1.1-2.3-1.7-3.8-1.7c-1.5,0-2.8,0.6-3.8,1.7c-1,1.1-1.6,2.4-1.6,4c0,1.6,0.5,2.9,1.6,4c1,1.1,2.3,1.7,3.8,1.7
		c1.5,0,2.7-0.6,3.8-1.7C102.3,17.7,102.8,16.3,102.8,14.8"/>
	<path style="fill:#4F4E4F;" d="M122,16.1h-12.7c0.3,1.3,0.9,2.3,1.9,3.1c1,0.8,2.1,1.2,3.4,1.2h0.9h0.9c0.7,0,1.1,0.4,1.1,1.2
		c0,0.7-0.4,1.1-1.1,1.2c-0.4,0-1,0-2,0c-2.1,0-3.9-0.8-5.4-2.3c-1.5-1.6-2.2-3.5-2.2-5.7c0-2.2,0.7-4.1,2.2-5.6
		c1.5-1.6,3.3-2.3,5.4-2.3c1.5,0,2.9,0.4,4.2,1.3c1.3,0.9,2.2,2.1,2.8,3.6c0.3,0.8,0.5,1.5,0.5,1.9V16.1z M119.5,13.7
		c-0.3-1.3-0.8-2.4-1.7-3.3c-0.9-0.9-2-1.3-3.3-1.3c-1.3,0-2.4,0.4-3.4,1.3c-1,0.9-1.6,2-1.9,3.3H119.5z"/>
	<path style="fill:#4F4E4F;" d="M126.2,21.7c0,0.3-0.1,0.6-0.4,0.8c-0.2,0.2-0.5,0.3-0.8,0.3c-0.3,0-0.5-0.1-0.7-0.4
		c-0.2-0.2-0.3-0.5-0.3-0.8V1.7c0-0.3,0.1-0.5,0.3-0.8c0.2-0.2,0.5-0.3,0.8-0.3c0.3,0,0.6,0.1,0.8,0.4c0.2,0.2,0.3,0.5,0.3,0.8V21.7
		z"/>
	<path style="fill:#4F4E4F;" d="M143.8,21.7c0,0.3-0.1,0.6-0.3,0.8c-0.2,0.2-0.5,0.3-0.8,0.3c-0.6,0-0.9-0.3-1-0.9
		c0-0.1,0-0.6,0-1.6c-1.5,1.7-3.3,2.6-5.4,2.6c-2.1,0-3.9-0.8-5.4-2.3c-1.5-1.6-2.2-3.5-2.2-5.7c0-2.2,0.7-4.1,2.2-5.6
		c1.5-1.6,3.3-2.3,5.4-2.3c2.1,0,3.8,0.8,5.3,2.3c1.5,1.6,2.2,3.4,2.2,5.6V21.7z M141.6,14.8c0-1.6-0.5-2.9-1.6-4
		c-1-1.1-2.3-1.7-3.8-1.7c-1.5,0-2.8,0.6-3.8,1.7c-1,1.1-1.6,2.5-1.6,4c0,1.6,0.5,2.9,1.6,4c1,1.1,2.3,1.7,3.8,1.7
		c1.5,0,2.7-0.6,3.8-1.7C141.1,17.7,141.6,16.3,141.6,14.8"/>
	<path style="fill:#7F8080;" d="M55.2,32.3c0-0.3,0.1-0.7,0.2-1c0.1-0.3,0.2-0.6,0.4-0.8c0.2-0.2,0.4-0.4,0.7-0.5
		c0.3-0.1,0.6-0.2,0.9-0.2c0.4,0,0.8,0.1,1.2,0.2L58.3,31c-0.1-0.1-0.2-0.1-0.4-0.1c-0.1,0-0.3-0.1-0.5-0.1c-0.4,0-0.7,0.1-0.9,0.4
		c-0.2,0.3-0.3,0.6-0.3,1.1c0,0.5,0.1,0.8,0.3,1.1c0.2,0.3,0.5,0.4,1,0.4c0.2,0,0.3,0,0.5-0.1c0.2,0,0.3-0.1,0.4-0.1l0.1,0.9
		c-0.1,0.1-0.3,0.1-0.5,0.2c-0.2,0-0.5,0.1-0.7,0.1c-0.4,0-0.7-0.1-1-0.2c-0.3-0.1-0.5-0.3-0.7-0.5c-0.2-0.2-0.3-0.5-0.4-0.8
		C55.3,32.9,55.2,32.6,55.2,32.3"/>
	<path style="fill:#7F8080;" d="M63.2,32.3c0,0.4-0.1,0.7-0.1,1c-0.1,0.3-0.2,0.6-0.4,0.8c-0.2,0.2-0.4,0.4-0.7,0.5
		c-0.3,0.1-0.5,0.2-0.9,0.2c-0.3,0-0.6-0.1-0.9-0.2c-0.3-0.1-0.5-0.3-0.7-0.5c-0.2-0.2-0.3-0.5-0.4-0.8c-0.1-0.3-0.2-0.6-0.2-1
		c0-0.4,0.1-0.7,0.2-1c0.1-0.3,0.2-0.6,0.4-0.8c0.2-0.2,0.4-0.4,0.7-0.5c0.3-0.1,0.5-0.2,0.8-0.2c0.3,0,0.6,0.1,0.8,0.2
		c0.3,0.1,0.5,0.3,0.7,0.5c0.2,0.2,0.3,0.5,0.4,0.8C63.2,31.6,63.2,31.9,63.2,32.3 M62.2,32.3c0-0.5-0.1-0.8-0.3-1.1
		c-0.2-0.3-0.4-0.4-0.8-0.4c-0.3,0-0.6,0.1-0.8,0.4c-0.2,0.3-0.3,0.6-0.3,1.1c0,0.5,0.1,0.8,0.3,1.1c0.2,0.3,0.4,0.4,0.8,0.4
		c0.3,0,0.6-0.1,0.8-0.4C62.1,33.1,62.2,32.7,62.2,32.3"/>
	<path style="fill:#7F8080;" d="M64.1,30.1c0.2-0.1,0.4-0.1,0.8-0.2c0.3-0.1,0.7-0.1,1-0.1c0.4,0,0.7,0.1,0.9,0.2
		c0.2,0.1,0.4,0.2,0.6,0.4c0.1,0.2,0.2,0.4,0.3,0.7c0.1,0.3,0.1,0.6,0.1,0.9v2.6h-1v-2.4c0-0.2,0-0.5,0-0.6c0-0.2-0.1-0.3-0.2-0.4
		c-0.1-0.1-0.2-0.2-0.3-0.2c-0.1,0-0.3-0.1-0.4-0.1c-0.1,0-0.3,0-0.4,0c-0.1,0-0.2,0-0.3,0v3.7h-1V30.1z"/>
	<path style="fill:#7F8080;" d="M68.8,28.7l1-0.2V30h1.6v0.9h-1.6v1.9c0,0.4,0.1,0.6,0.2,0.8c0.1,0.2,0.3,0.2,0.6,0.2
		c0.2,0,0.3,0,0.5-0.1c0.1,0,0.3-0.1,0.3-0.1l0.2,0.8c-0.1,0.1-0.3,0.1-0.5,0.2c-0.2,0.1-0.4,0.1-0.7,0.1c-0.3,0-0.6,0-0.8-0.1
		c-0.2-0.1-0.4-0.2-0.5-0.4c-0.1-0.2-0.2-0.4-0.3-0.6c0-0.2-0.1-0.5-0.1-0.8V28.7z"/>
	<path style="fill:#7F8080;" d="M71.9,32.3c0-0.4,0.1-0.8,0.2-1.1c0.1-0.3,0.3-0.6,0.5-0.8c0.2-0.2,0.4-0.4,0.7-0.5
		c0.2-0.1,0.5-0.2,0.8-0.2c0.6,0,1.1,0.2,1.4,0.6c0.3,0.4,0.5,1,0.5,1.8c0,0.1,0,0.1,0,0.2c0,0.1,0,0.1,0,0.2h-2.9
		c0,0.4,0.2,0.7,0.4,0.9c0.2,0.2,0.5,0.3,1,0.3c0.2,0,0.5,0,0.7-0.1c0.2,0,0.4-0.1,0.5-0.2l0.1,0.9c-0.1,0-0.1,0.1-0.2,0.1
		c-0.1,0-0.2,0.1-0.3,0.1c-0.1,0-0.3,0-0.4,0.1c-0.1,0-0.3,0-0.4,0c-0.4,0-0.7-0.1-1-0.2c-0.3-0.1-0.5-0.3-0.7-0.5
		c-0.2-0.2-0.3-0.5-0.4-0.8C71.9,33,71.9,32.6,71.9,32.3 M74.8,31.8c0-0.1,0-0.3-0.1-0.4c0-0.1-0.1-0.2-0.2-0.3
		c-0.1-0.1-0.2-0.2-0.3-0.2c-0.1-0.1-0.2-0.1-0.4-0.1c-0.2,0-0.3,0-0.4,0.1c-0.1,0.1-0.2,0.1-0.3,0.2c-0.1,0.1-0.1,0.2-0.2,0.3
		c0,0.1-0.1,0.3-0.1,0.4H74.8z"/>
	<path style="fill:#7F8080;" d="M76.8,30.1c0.2-0.1,0.4-0.1,0.8-0.2c0.3-0.1,0.7-0.1,1-0.1c0.4,0,0.7,0.1,0.9,0.2
		c0.2,0.1,0.4,0.2,0.6,0.4c0.1,0.2,0.2,0.4,0.3,0.7c0.1,0.3,0.1,0.6,0.1,0.9v2.6h-1v-2.4c0-0.2,0-0.5,0-0.6c0-0.2-0.1-0.3-0.1-0.4
		c-0.1-0.1-0.2-0.2-0.3-0.2c-0.1,0-0.3-0.1-0.4-0.1c-0.1,0-0.3,0-0.4,0c-0.1,0-0.2,0-0.3,0v3.7h-1V30.1z"/>
	<path style="fill:#7F8080;" d="M82.6,28.6c0,0.2-0.1,0.4-0.2,0.5c-0.1,0.1-0.3,0.2-0.4,0.2c-0.2,0-0.3-0.1-0.4-0.2
		c-0.1-0.1-0.2-0.3-0.2-0.5c0-0.2,0.1-0.4,0.2-0.5c0.1-0.1,0.3-0.2,0.4-0.2c0.2,0,0.3,0.1,0.4,0.2C82.6,28.2,82.6,28.4,82.6,28.6
		 M82.5,34.6h-1V30h1V34.6z"/>
	<path style="fill:#7F8080;" d="M87.3,34.4c-0.2,0.1-0.5,0.1-0.8,0.2c-0.3,0.1-0.6,0.1-1,0.1c-0.3,0-0.7-0.1-0.9-0.2
		c-0.3-0.1-0.5-0.3-0.7-0.5c-0.2-0.2-0.3-0.5-0.4-0.8c-0.1-0.3-0.2-0.6-0.2-1c0-0.4,0-0.7,0.1-1c0.1-0.3,0.2-0.5,0.4-0.8
		c0.2-0.2,0.4-0.4,0.6-0.5c0.2-0.1,0.5-0.2,0.8-0.2c0.2,0,0.4,0,0.6,0.1c0.2,0.1,0.3,0.1,0.4,0.2v-2.2l1-0.2V34.4z M84.4,32.2
		c0,0.5,0.1,0.8,0.3,1.1c0.2,0.3,0.5,0.4,0.9,0.4c0.2,0,0.3,0,0.4,0c0.1,0,0.2,0,0.3,0V31c-0.1-0.1-0.2-0.1-0.4-0.2
		c-0.1-0.1-0.3-0.1-0.5-0.1c-0.4,0-0.6,0.1-0.8,0.4C84.5,31.4,84.4,31.8,84.4,32.2"/>
	<path style="fill:#7F8080;" d="M92.4,32.3c0,0.4-0.1,0.7-0.2,1c-0.1,0.3-0.2,0.6-0.4,0.8c-0.2,0.2-0.4,0.4-0.7,0.5
		c-0.3,0.1-0.5,0.2-0.9,0.2c-0.3,0-0.6-0.1-0.9-0.2c-0.3-0.1-0.5-0.3-0.7-0.5c-0.2-0.2-0.3-0.5-0.4-0.8c-0.1-0.3-0.2-0.6-0.2-1
		c0-0.4,0.1-0.7,0.2-1c0.1-0.3,0.2-0.6,0.4-0.8c0.2-0.2,0.4-0.4,0.7-0.5c0.3-0.1,0.5-0.2,0.8-0.2c0.3,0,0.6,0.1,0.8,0.2
		c0.3,0.1,0.5,0.3,0.7,0.5c0.2,0.2,0.3,0.5,0.4,0.8C92.3,31.6,92.4,31.9,92.4,32.3 M91.3,32.3c0-0.5-0.1-0.8-0.3-1.1
		c-0.2-0.3-0.4-0.4-0.8-0.4c-0.3,0-0.6,0.1-0.8,0.4c-0.2,0.3-0.3,0.6-0.3,1.1c0,0.5,0.1,0.8,0.3,1.1c0.2,0.3,0.4,0.4,0.8,0.4
		c0.3,0,0.6-0.1,0.8-0.4C91.3,33.1,91.3,32.7,91.3,32.3"/>
	<path style="fill:#7F8080;" d="M94.4,33.8c0.3,0,0.5,0,0.6-0.1c0.1-0.1,0.2-0.2,0.2-0.3c0-0.2-0.1-0.3-0.2-0.4
		c-0.1-0.1-0.3-0.2-0.6-0.3c-0.2-0.1-0.4-0.1-0.5-0.2c-0.2-0.1-0.3-0.2-0.4-0.3c-0.1-0.1-0.2-0.2-0.3-0.4c-0.1-0.1-0.1-0.3-0.1-0.6
		c0-0.4,0.1-0.8,0.4-1c0.3-0.2,0.7-0.4,1.2-0.4c0.3,0,0.5,0,0.7,0.1c0.2,0,0.4,0.1,0.5,0.1l-0.2,0.9c-0.1-0.1-0.3-0.1-0.4-0.1
		c-0.2,0-0.4-0.1-0.6-0.1c-0.2,0-0.4,0-0.5,0.1C94.1,30.9,94,31,94,31.2c0,0.1,0,0.1,0,0.2c0,0.1,0.1,0.1,0.1,0.2
		c0.1,0,0.1,0.1,0.2,0.1c0.1,0,0.2,0.1,0.4,0.2c0.2,0.1,0.4,0.2,0.6,0.3c0.2,0.1,0.3,0.2,0.4,0.3c0.1,0.1,0.2,0.2,0.2,0.4
		c0.1,0.1,0.1,0.3,0.1,0.5c0,0.4-0.2,0.8-0.5,1c-0.3,0.2-0.8,0.3-1.3,0.3c-0.4,0-0.7,0-0.9-0.1c-0.2-0.1-0.4-0.1-0.5-0.2l0.2-0.9
		c0.2,0.1,0.3,0.1,0.5,0.2C93.9,33.8,94.1,33.8,94.4,33.8"/>
	<polygon style="fill:#C85C37;" points="98.5,31.6 100,31.6 100,29.9 100.9,29.9 100.9,31.6 102.4,31.6 102.4,32.5 100.9,32.5 
		100.9,34.2 100,34.2 100,32.5 98.5,32.5 	"/>
	<path style="fill:#7F8080;" d="M106.2,33.8c0.3,0,0.5,0,0.6-0.1c0.1-0.1,0.2-0.2,0.2-0.3c0-0.2-0.1-0.3-0.2-0.4
		c-0.1-0.1-0.3-0.2-0.6-0.3c-0.2-0.1-0.4-0.1-0.5-0.2c-0.2-0.1-0.3-0.2-0.4-0.3c-0.1-0.1-0.2-0.2-0.3-0.4c-0.1-0.1-0.1-0.3-0.1-0.6
		c0-0.4,0.1-0.8,0.4-1c0.3-0.2,0.7-0.4,1.2-0.4c0.3,0,0.5,0,0.7,0.1c0.2,0,0.4,0.1,0.5,0.1l-0.2,0.9c-0.1-0.1-0.3-0.1-0.4-0.1
		c-0.2,0-0.4-0.1-0.6-0.1c-0.2,0-0.4,0-0.5,0.1c-0.1,0.1-0.2,0.2-0.2,0.3c0,0.1,0,0.1,0,0.2c0,0.1,0.1,0.1,0.1,0.2
		c0.1,0,0.1,0.1,0.2,0.1c0.1,0,0.2,0.1,0.4,0.2c0.2,0.1,0.4,0.2,0.6,0.3c0.2,0.1,0.3,0.2,0.4,0.3c0.1,0.1,0.2,0.2,0.2,0.4
		c0.1,0.1,0.1,0.3,0.1,0.5c0,0.4-0.2,0.8-0.5,1c-0.3,0.2-0.8,0.3-1.3,0.3c-0.4,0-0.7,0-0.9-0.1c-0.2-0.1-0.4-0.1-0.5-0.2l0.2-0.9
		c0.2,0.1,0.3,0.1,0.5,0.2C105.7,33.8,105.9,33.8,106.2,33.8"/>
	<path style="fill:#7F8080;" d="M112.7,32.3c0,0.4,0,0.7-0.1,1c-0.1,0.3-0.2,0.6-0.4,0.8c-0.2,0.2-0.4,0.4-0.7,0.5
		c-0.3,0.1-0.5,0.2-0.9,0.2c-0.3,0-0.6-0.1-0.9-0.2c-0.3-0.1-0.5-0.3-0.7-0.5c-0.2-0.2-0.3-0.5-0.4-0.8c-0.1-0.3-0.2-0.6-0.2-1
		c0-0.4,0.1-0.7,0.2-1c0.1-0.3,0.2-0.6,0.4-0.8c0.2-0.2,0.4-0.4,0.7-0.5c0.3-0.1,0.5-0.2,0.8-0.2c0.3,0,0.6,0.1,0.8,0.2
		c0.3,0.1,0.5,0.3,0.7,0.5c0.2,0.2,0.3,0.5,0.4,0.8C112.6,31.6,112.7,31.9,112.7,32.3 M111.7,32.3c0-0.5-0.1-0.8-0.3-1.1
		c-0.2-0.3-0.4-0.4-0.8-0.4c-0.3,0-0.6,0.1-0.8,0.4c-0.2,0.3-0.3,0.6-0.3,1.1c0,0.5,0.1,0.8,0.3,1.1c0.2,0.3,0.4,0.4,0.8,0.4
		c0.3,0,0.6-0.1,0.8-0.4C111.6,33.1,111.7,32.7,111.7,32.3"/>
	<path style="fill:#7F8080;" d="M115.1,34.7c-0.3,0-0.5,0-0.7-0.1c-0.2-0.1-0.4-0.2-0.5-0.3c-0.1-0.1-0.2-0.3-0.2-0.4
		c0-0.2-0.1-0.4-0.1-0.6v-5.3l1-0.2V33c0,0.1,0,0.2,0,0.3c0,0.1,0.1,0.2,0.1,0.2c0,0.1,0.1,0.1,0.2,0.1c0.1,0,0.2,0.1,0.3,0.1
		L115.1,34.7z"/>
	<path style="fill:#7F8080;" d="M119.5,34.4c-0.2,0.1-0.4,0.1-0.8,0.2c-0.3,0.1-0.7,0.1-1,0.1c-0.3,0-0.6-0.1-0.9-0.2
		c-0.2-0.1-0.4-0.3-0.6-0.4c-0.1-0.2-0.2-0.4-0.3-0.7c-0.1-0.3-0.1-0.5-0.1-0.9V30h1v2.4c0,0.5,0.1,0.8,0.2,1.1
		c0.1,0.2,0.4,0.3,0.7,0.3c0.1,0,0.3,0,0.4,0c0.1,0,0.2,0,0.3,0V30h1V34.4z"/>
	<path style="fill:#7F8080;" d="M120.4,32.3c0-0.3,0.1-0.7,0.1-1c0.1-0.3,0.2-0.6,0.4-0.8c0.2-0.2,0.4-0.4,0.7-0.5
		c0.3-0.1,0.6-0.2,0.9-0.2c0.4,0,0.8,0.1,1.2,0.2l-0.2,0.9c-0.1-0.1-0.2-0.1-0.4-0.1c-0.1,0-0.3-0.1-0.5-0.1c-0.4,0-0.7,0.1-0.9,0.4
		c-0.2,0.3-0.3,0.6-0.3,1.1c0,0.5,0.1,0.8,0.3,1.1c0.2,0.3,0.5,0.4,1,0.4c0.2,0,0.3,0,0.5-0.1c0.2,0,0.3-0.1,0.4-0.1l0.1,0.9
		c-0.1,0.1-0.3,0.1-0.5,0.2c-0.2,0-0.5,0.1-0.7,0.1c-0.4,0-0.7-0.1-1-0.2c-0.3-0.1-0.5-0.3-0.7-0.5c-0.2-0.2-0.3-0.5-0.4-0.8
		C120.4,32.9,120.4,32.6,120.4,32.3"/>
	<path style="fill:#7F8080;" d="M125.5,28.6c0,0.2-0.1,0.4-0.2,0.5c-0.1,0.1-0.3,0.2-0.4,0.2c-0.2,0-0.3-0.1-0.4-0.2
		c-0.1-0.1-0.2-0.3-0.2-0.5c0-0.2,0.1-0.4,0.2-0.5c0.1-0.1,0.3-0.2,0.4-0.2c0.2,0,0.3,0.1,0.4,0.2C125.5,28.2,125.5,28.4,125.5,28.6
		 M125.4,34.6h-1V30h1V34.6z"/>
	<path style="fill:#7F8080;" d="M130.5,32.3c0,0.4,0,0.7-0.1,1c-0.1,0.3-0.2,0.6-0.4,0.8c-0.2,0.2-0.4,0.4-0.7,0.5
		c-0.3,0.1-0.5,0.2-0.9,0.2c-0.3,0-0.6-0.1-0.9-0.2c-0.3-0.1-0.5-0.3-0.7-0.5c-0.2-0.2-0.3-0.5-0.4-0.8c-0.1-0.3-0.2-0.6-0.2-1
		c0-0.4,0-0.7,0.2-1c0.1-0.3,0.2-0.6,0.4-0.8c0.2-0.2,0.4-0.4,0.7-0.5c0.3-0.1,0.5-0.2,0.8-0.2s0.6,0.1,0.8,0.2
		c0.3,0.1,0.5,0.3,0.7,0.5c0.2,0.2,0.3,0.5,0.4,0.8C130.4,31.6,130.5,31.9,130.5,32.3 M129.4,32.3c0-0.5-0.1-0.8-0.3-1.1
		c-0.2-0.3-0.4-0.4-0.8-0.4c-0.3,0-0.6,0.1-0.8,0.4c-0.2,0.3-0.3,0.6-0.3,1.1c0,0.5,0.1,0.8,0.3,1.1c0.2,0.3,0.4,0.4,0.8,0.4
		c0.3,0,0.6-0.1,0.8-0.4C129.4,33.1,129.4,32.7,129.4,32.3"/>
	<path style="fill:#7F8080;" d="M131.4,30.1c0.2-0.1,0.4-0.1,0.8-0.2c0.3-0.1,0.7-0.1,1-0.1c0.4,0,0.7,0.1,0.9,0.2
		c0.2,0.1,0.4,0.2,0.6,0.4c0.1,0.2,0.2,0.4,0.3,0.7c0.1,0.3,0.1,0.6,0.1,0.9v2.6h-1v-2.4c0-0.2,0-0.5,0-0.6c0-0.2-0.1-0.3-0.2-0.4
		c-0.1-0.1-0.2-0.2-0.3-0.2c-0.1,0-0.3-0.1-0.4-0.1c-0.1,0-0.3,0-0.4,0c-0.1,0-0.2,0-0.3,0v3.7h-1V30.1z"/>
	<path style="fill:#7F8080;" d="M135.9,32.3c0-0.4,0.1-0.8,0.2-1.1c0.1-0.3,0.3-0.6,0.5-0.8c0.2-0.2,0.4-0.4,0.7-0.5
		c0.2-0.1,0.5-0.2,0.8-0.2c0.6,0,1.1,0.2,1.4,0.6c0.3,0.4,0.5,1,0.5,1.8c0,0.1,0,0.1,0,0.2c0,0.1,0,0.1,0,0.2h-2.9
		c0,0.4,0.2,0.7,0.4,0.9c0.2,0.2,0.5,0.3,1,0.3c0.2,0,0.5,0,0.7-0.1c0.2,0,0.4-0.1,0.5-0.2l0.1,0.9c-0.1,0-0.1,0.1-0.2,0.1
		c-0.1,0-0.2,0.1-0.3,0.1c-0.1,0-0.3,0-0.4,0.1c-0.1,0-0.3,0-0.4,0c-0.4,0-0.7-0.1-1-0.2c-0.3-0.1-0.5-0.3-0.7-0.5
		c-0.2-0.2-0.3-0.5-0.4-0.8C135.9,33,135.9,32.6,135.9,32.3 M138.8,31.8c0-0.1,0-0.3-0.1-0.4c0-0.1-0.1-0.2-0.2-0.3
		c-0.1-0.1-0.2-0.2-0.3-0.2c-0.1-0.1-0.2-0.1-0.4-0.1c-0.2,0-0.3,0-0.4,0.1c-0.1,0.1-0.2,0.1-0.3,0.2c-0.1,0.1-0.1,0.2-0.2,0.3
		c0,0.1-0.1,0.3-0.1,0.4H138.8z"/>
	<path style="fill:#7F8080;" d="M141.8,33.8c0.3,0,0.5,0,0.6-0.1c0.1-0.1,0.2-0.2,0.2-0.3c0-0.2-0.1-0.3-0.2-0.4
		c-0.1-0.1-0.3-0.2-0.6-0.3c-0.2-0.1-0.4-0.1-0.5-0.2c-0.2-0.1-0.3-0.2-0.4-0.3c-0.1-0.1-0.2-0.2-0.3-0.4c-0.1-0.1-0.1-0.3-0.1-0.6
		c0-0.4,0.1-0.8,0.4-1c0.3-0.2,0.7-0.4,1.2-0.4c0.3,0,0.5,0,0.7,0.1c0.2,0,0.4,0.1,0.5,0.1l-0.2,0.9c-0.1-0.1-0.3-0.1-0.4-0.1
		c-0.2,0-0.4-0.1-0.6-0.1c-0.2,0-0.4,0-0.5,0.1c-0.1,0.1-0.2,0.2-0.2,0.3c0,0.1,0,0.1,0,0.2c0,0.1,0.1,0.1,0.1,0.2
		c0.1,0,0.1,0.1,0.2,0.1c0.1,0,0.2,0.1,0.4,0.2c0.2,0.1,0.4,0.2,0.6,0.3c0.2,0.1,0.3,0.2,0.4,0.3c0.1,0.1,0.2,0.2,0.2,0.4
		c0.1,0.1,0.1,0.3,0.1,0.5c0,0.4-0.2,0.8-0.5,1c-0.3,0.2-0.7,0.3-1.3,0.3c-0.4,0-0.7,0-0.9-0.1c-0.2-0.1-0.4-0.1-0.5-0.2l0.2-0.9
		c0.2,0.1,0.3,0.1,0.5,0.2C141.3,33.8,141.5,33.8,141.8,33.8"/>
	<path style="fill:#E75E12;" d="M159.6,0.3c1.4,0.1,3.6,0.6,6.5,1.3c2.9,0.7,5.1,1.3,6.4,1.9c0.5,0.2,2.6,1.4,4,2.9
		c2.2,2.6,3.3,6.1,2,11.8c-1.3,5.7-2.4,9.5-3.5,11.5c-1.1,2-2.5,3.3-4.4,3.8c-1.9,0.5-3.5,0.7-4.9,0.6c-1.4-0.1-3.6-0.6-6.5-1.3
		c-2.9-0.7-5-1.4-6.4-1.9c-1.3-0.5-2.7-1.4-4-2.6c-2.6-2.4-3.2-6.4-1.9-12.1c1.3-5.7,2.4-9.5,3.5-11.5c1.1-2,2.5-3.3,4.4-3.8
		C156.6,0.4,158.2,0.2,159.6,0.3"/>
	<path style="fill:#FFFFFF;" d="M170,26.1c-2,2.2-4.5,3.2-7.3,3.2c-2.9,0-5.3-1.1-7.4-3.2c-2-2.2-3.1-4.8-3.1-7.8c0,0,0-3,0-9
		c0-0.4,0.2-0.8,0.5-1.1c0.3-0.3,0.7-0.5,1.1-0.5c0.4,0,0.8,0.2,1.1,0.5c0.3,0.3,0.5,0.7,0.5,1.1v9.1c0,2.2,0.7,4.1,2.2,5.6
		c1.4,1.5,3.2,2.3,5.3,2.3c2,0,3.8-0.8,5.2-2.3c1.4-1.5,2.2-3.4,2.2-5.6v-9c0-0.4,0.1-0.8,0.4-1.1c0.3-0.3,0.6-0.5,1-0.5
		c1,0,1.5,0.5,1.5,1.5l0.1,9.1C173.1,21.3,172,23.9,170,26.1"/>
</g>
<g>
</g>
<g>
</g>
<g>
</g>
<g>
</g>
<g>
</g>
<g>
</g>
</svg>
